<?xml version="1.0" encoding="UTF-8"?>
<svg id="Capa_2" data-name="Capa 2" xmlns="http://www.w3.org/2000/svg" viewBox="0 0 875.22 201.72">
  <defs>
    <style>
      .cls-1 {
        fill: #931818;
      }

      .cls-2 {
        fill: #f5f2eb;
      }
    </style>
  </defs>
  <g id="Graphic_Elements" data-name="Graphic Elements">
    <g>
      <g>
        <path class="cls-1" d="M100.99,117.82V0h31.44v12.28h-18.6v93.25h18.6v12.28h-31.44Z"/>
        <path class="cls-2" d="M186.07,105.28c-5.44,0-10.18-1.06-14.22-3.2-4.04-2.13-7.16-5.22-9.36-9.27-2.2-4.05-3.3-8.79-3.3-14.23v-40.61c0-5.51,1.1-10.28,3.3-14.29,2.2-4.01,5.32-7.08,9.36-9.21,4.04-2.13,8.78-3.2,14.22-3.2s10.16,1.09,14.16,3.26c4,2.17,7.1,5.24,9.3,9.21,2.2,3.97,3.3,8.71,3.3,14.23h-12.96c0-4.76-1.2-8.4-3.6-10.91s-5.8-3.76-10.2-3.76-7.82,1.25-10.26,3.76-3.66,6.1-3.66,10.78v40.74c0,4.68,1.22,8.29,3.66,10.84,2.44,2.55,5.86,3.82,10.26,3.82s7.8-1.27,10.2-3.82,3.6-6.16,3.6-10.84h12.96c0,5.43-1.1,10.15-3.3,14.16-2.2,4.01-5.3,7.1-9.3,9.27-4,2.17-8.72,3.26-14.16,3.26Z"/>
        <path class="cls-2" d="M231.68,104.03V12.53h27.48c5.52,0,10.32,1.11,14.4,3.32,4.08,2.21,7.26,5.33,9.54,9.34,2.28,4.01,3.42,8.73,3.42,14.16,0,6.1-1.5,11.39-4.5,15.86-3,4.47-7.06,7.63-12.18,9.46l17.88,39.36h-14.76l-15.96-37.6h-12.36v37.6h-12.96ZM244.64,54.52h14.52c4.32,0,7.76-1.36,10.32-4.07,2.56-2.71,3.84-6.33,3.84-10.84s-1.28-8.35-3.84-11.03c-2.56-2.67-6-4.01-10.32-4.01h-14.52v29.96Z"/>
        <path class="cls-2" d="M304.88,104.03V12.53h51.48v12.03h-38.76v25.95h34.56v11.91h-34.56v29.58h38.76v12.03h-51.48Z"/>
        <path class="cls-2" d="M370.77,104.03l22.32-91.5h17.04l22.32,91.5h-13.08l-5.28-23.19h-24.84l-5.28,23.19h-13.2ZM391.65,69.69h19.92l-6-26.45c-1.04-4.68-1.9-8.75-2.58-12.22-.68-3.47-1.14-5.83-1.38-7.08-.24,1.25-.68,3.61-1.32,7.08-.64,3.47-1.52,7.5-2.64,12.09l-6,26.57Z"/>
        <path class="cls-2" d="M467.13,104.03V24.94h-23.4v-12.53h59.76v12.53h-23.4v79.09h-12.96Z"/>
        <path class="cls-2" d="M520.9,104.03V12.53h51.48v12.03h-38.76v25.95h34.56v11.91h-34.56v29.58h38.76v12.03h-51.48Z"/>
        <path class="cls-2" d="M618.1,105.28c-5.44,0-10.18-1.06-14.22-3.2-4.04-2.13-7.16-5.22-9.36-9.27-2.2-4.05-3.3-8.79-3.3-14.23v-40.61c0-5.51,1.1-10.28,3.3-14.29,2.2-4.01,5.32-7.08,9.36-9.21,4.04-2.13,8.78-3.2,14.22-3.2s10.16,1.09,14.16,3.26c4,2.17,7.1,5.24,9.3,9.21,2.2,3.97,3.3,8.71,3.3,14.23h-12.96c0-4.76-1.2-8.4-3.6-10.91-2.4-2.51-5.8-3.76-10.2-3.76s-7.82,1.25-10.26,3.76c-2.44,2.51-3.66,6.1-3.66,10.78v40.74c0,4.68,1.22,8.29,3.66,10.84,2.44,2.55,5.86,3.82,10.26,3.82s7.8-1.27,10.2-3.82c2.4-2.55,3.6-6.16,3.6-10.84h12.96c0,5.43-1.1,10.15-3.3,14.16-2.2,4.01-5.3,7.1-9.3,9.27-4,2.17-8.72,3.26-14.16,3.26Z"/>
        <path class="cls-2" d="M658.79,104.03l22.32-91.5h17.04l22.32,91.5h-13.08l-5.28-23.19h-24.84l-5.28,23.19h-13.2ZM679.67,69.69h19.92l-6-26.45c-1.04-4.68-1.9-8.75-2.58-12.22-.68-3.47-1.14-5.83-1.38-7.08-.24,1.25-.68,3.61-1.32,7.08-.64,3.47-1.52,7.5-2.64,12.09l-6,26.57Z"/>
        <path class="cls-1" d="M742.79,117.82v-12.28h18.6V12.28h-18.6V0h31.44v117.82h-31.44Z"/>
      </g>
      <g>
        <path class="cls-2" d="M201.97,159.65v-24.74h3.8v24.74h-3.8ZM204.17,159.65v-3.9h5.38c1.57,0,2.78-.42,3.64-1.27s1.29-2.03,1.29-3.56v-7.28c0-1.54-.43-2.73-1.29-3.57-.86-.84-2.08-1.26-3.64-1.26h-5.38v-3.9h5.29c2.85,0,5.05.77,6.61,2.32s2.33,3.73,2.33,6.54v7.01c0,1.81-.34,3.39-1.02,4.71s-1.69,2.35-3.03,3.07-2.97,1.08-4.91,1.08h-5.27Z"/>
        <path class="cls-2" d="M223,159.65v-24.74h3.8v24.74h-3.8ZM224.57,138.8v-3.9h13.58v3.9h-13.58ZM224.57,149.3v-3.88h11.83v3.88h-11.83ZM224.57,159.65v-3.9h13.58v3.9h-13.58Z"/>
        <path class="cls-2" d="M247.66,159.65l-7.61-24.74h4l5.22,17.95,5.22-17.95h4l-7.61,24.74h-3.24Z"/>
        <path class="cls-2" d="M261.68,159.65v-24.74h3.8v24.74h-3.8ZM263.25,138.8v-3.9h13.58v3.9h-13.58ZM263.25,149.3v-3.88h11.83v3.88h-11.83ZM263.25,159.65v-3.9h13.58v3.9h-13.58Z"/>
        <path class="cls-2" d="M281.12,159.65v-24.74h3.8v24.74h-3.8ZM282.9,159.65v-3.9h13.37v3.9h-13.37Z"/>
        <path class="cls-2" d="M306.92,159.9c-1.66,0-3.12-.38-4.36-1.13-1.24-.75-2.21-1.82-2.89-3.19-.68-1.37-1.02-2.97-1.02-4.8v-7.01c0-1.84.34-3.44,1.02-4.81.68-1.37,1.65-2.43,2.89-3.18s2.7-1.13,4.36-1.13,3.12.38,4.36,1.13c1.24.75,2.21,1.81,2.89,3.18.68,1.37,1.02,2.97,1.02,4.81v7.01c0,1.83-.34,3.43-1.02,4.8-.68,1.37-1.65,2.44-2.89,3.19s-2.7,1.13-4.36,1.13ZM306.92,155.87c1.32,0,2.38-.45,3.18-1.36.79-.91,1.19-2.11,1.19-3.61v-7.25c0-1.51-.4-2.71-1.19-3.62-.79-.9-1.85-1.35-3.18-1.35s-2.37.45-3.17,1.35-1.2,2.11-1.2,3.62v7.25c0,1.5.4,2.7,1.2,3.61.8.91,1.86,1.36,3.17,1.36Z"/>
        <path class="cls-2" d="M319.8,159.65v-24.74h3.8v24.74h-3.8ZM321.63,150.05v-3.9h7.38c.92,0,1.66-.34,2.23-1.01s.85-1.56.85-2.65-.28-2.02-.84-2.69c-.56-.67-1.31-1-2.24-1h-7.38v-3.9h7.27c1.43,0,2.67.31,3.73.94,1.06.63,1.88,1.51,2.48,2.65s.89,2.47.89,4-.3,2.85-.89,3.98-1.42,2.01-2.49,2.64c-1.06.62-2.31.94-3.72.94h-7.27Z"/>
        <path class="cls-2" d="M343.45,134.9v24.74h-3.87v-24.74h3.87Z"/>
        <path class="cls-2" d="M348.69,159.63v-24.72h4.13l9.94,19.04-.38.44v-19.48h3.68v24.72h-4.16l-9.91-18.75.38-.44v19.19h-3.68Z"/>
        <path class="cls-2" d="M379.56,146.07h8v4.58c0,1.86-.34,3.49-1.02,4.87-.68,1.39-1.64,2.47-2.87,3.23-1.23.77-2.68,1.15-4.34,1.15s-3.13-.36-4.38-1.08c-1.25-.72-2.22-1.74-2.91-3.05-.69-1.31-1.04-2.84-1.04-4.59v-7.3c0-1.86.34-3.48,1.03-4.87.69-1.38,1.65-2.46,2.87-3.22s2.67-1.15,4.34-1.15c1.38,0,2.63.31,3.76.92s2.07,1.47,2.84,2.57c.77,1.1,1.28,2.39,1.55,3.86h-4.1c-.26-1.04-.79-1.85-1.56-2.41-.78-.56-1.61-.84-2.49-.84-1.31,0-2.36.47-3.15,1.41-.79.94-1.18,2.18-1.18,3.73v7.3c0,1.4.4,2.51,1.21,3.35s1.88,1.26,3.22,1.26,2.36-.45,3.15-1.34,1.18-2.14,1.18-3.74v-.75h-4.1v-3.9Z"/>
      </g>
      <g>
        <path class="cls-2" d="M409.32,159.65v-24.74h3.78v24.74h-3.78ZM411.23,159.65v-3.85h6.81c1.36,0,2.35-.31,2.98-.92s.94-1.43.94-2.47v-.05c0-1.09-.29-1.95-.87-2.57s-1.46-.94-2.66-.94h-7.21v-3.81h7.21c1.05,0,1.85-.27,2.4-.82s.83-1.33.83-2.37-.29-1.8-.87-2.32-1.44-.79-2.57-.79h-6.99v-3.85h7.35c2.27,0,3.98.6,5.15,1.79,1.17,1.19,1.75,2.83,1.75,4.92,0,1.34-.37,2.5-1.1,3.48s-1.82,1.61-3.27,1.88c1.48.23,2.63.88,3.45,1.96s1.22,2.39,1.22,3.93v.05c0,2.08-.61,3.72-1.84,4.93-1.23,1.21-2.93,1.81-5.1,1.81h-7.62Z"/>
        <path class="cls-2" d="M430.31,159.65v-24.76h3.8v24.76h-3.8ZM431.89,149.44v-3.9h7.96c.82,0,1.47-.31,1.95-.93.49-.62.74-1.44.75-2.46,0-1.01-.25-1.82-.74-2.44-.49-.62-1.15-.93-1.96-.93h-7.96v-3.9h8.07c1.31,0,2.46.3,3.44.9s1.74,1.45,2.29,2.54.82,2.37.82,3.83-.28,2.74-.83,3.83c-.55,1.09-1.31,1.94-2.29,2.54s-2.12.91-3.43.91h-8.07ZM442.91,159.65l-5.45-10.97,3.94-.78,6.07,11.76h-4.56Z"/>
        <path class="cls-2" d="M448.5,159.65l8.67-24.74h2.76l8.67,24.74h-4.08l-5.97-18.43-5.97,18.43h-4.08ZM452.58,154.96v-3.9h12.15v3.9h-12.15Z"/>
        <path class="cls-2" d="M471.78,159.64v-24.72h4.13l9.94,19.04-.38.44v-19.48h3.68v24.72h-4.16l-9.91-18.75.38-.44v19.19h-3.68Z"/>
        <path class="cls-2" d="M494.55,159.65v-24.74h3.8v24.74h-3.8ZM496.74,159.65v-3.9h5.38c1.57,0,2.78-.42,3.64-1.27s1.29-2.03,1.29-3.56v-7.28c0-1.54-.43-2.73-1.29-3.57s-2.08-1.26-3.64-1.26h-5.38v-3.9h5.29c2.85,0,5.05.77,6.61,2.32,1.56,1.55,2.33,3.73,2.33,6.54v7.01c0,1.81-.34,3.39-1.02,4.71-.68,1.33-1.69,2.35-3.03,3.07-1.33.72-2.97,1.08-4.91,1.08h-5.27Z"/>
      </g>
      <g>
        <path class="cls-2" d="M532.73,138.8v-3.9h16.61v3.9h-16.61ZM539.15,159.65v-22.72h3.78v22.72h-3.78Z"/>
        <path class="cls-2" d="M552.2,159.65v-24.74h3.8v24.74h-3.8ZM554.21,149.37v-3.9h13.13v3.9h-13.13ZM565.08,159.65v-24.74h3.8v24.74h-3.8Z"/>
        <path class="cls-2" d="M574.27,159.65v-24.76h3.8v24.76h-3.8ZM575.84,149.44v-3.9h7.96c.82,0,1.47-.31,1.95-.93.49-.62.74-1.44.75-2.46,0-1.01-.25-1.82-.74-2.44-.49-.62-1.15-.93-1.96-.93h-7.96v-3.9h8.07c1.31,0,2.46.3,3.44.9.98.6,1.74,1.45,2.29,2.54s.82,2.37.82,3.83-.28,2.74-.83,3.83-1.31,1.94-2.29,2.54c-.97.61-2.12.91-3.43.91h-8.07ZM586.86,159.65l-5.45-10.97,3.94-.78,6.07,11.76h-4.56Z"/>
        <path class="cls-2" d="M602.63,159.9c-1.66,0-3.12-.38-4.36-1.13s-2.21-1.82-2.89-3.19c-.68-1.37-1.02-2.97-1.02-4.8v-7.01c0-1.84.34-3.44,1.02-4.81.68-1.37,1.65-2.43,2.89-3.18,1.24-.75,2.7-1.13,4.36-1.13s3.12.38,4.36,1.13c1.24.75,2.21,1.81,2.89,3.18.68,1.37,1.02,2.97,1.02,4.81v7.01c0,1.83-.34,3.43-1.02,4.8-.68,1.37-1.65,2.44-2.89,3.19s-2.7,1.13-4.36,1.13ZM602.63,155.87c1.32,0,2.38-.45,3.18-1.36s1.19-2.11,1.19-3.61v-7.25c0-1.51-.4-2.71-1.19-3.62s-1.85-1.35-3.18-1.35-2.37.45-3.17,1.35-1.2,2.11-1.2,3.62v7.25c0,1.5.4,2.7,1.2,3.61.8.91,1.86,1.36,3.17,1.36Z"/>
        <path class="cls-2" d="M623.13,159.9c-2.63,0-4.66-.8-6.1-2.41s-2.16-3.87-2.16-6.8v-15.79h3.8v15.91c0,1.61.39,2.86,1.17,3.74.78.88,1.88,1.33,3.3,1.33s2.54-.44,3.32-1.33c.78-.88,1.18-2.13,1.18-3.74v-15.91h3.8v15.79c0,2.93-.72,5.19-2.17,6.8-1.45,1.61-3.49,2.41-6.12,2.41Z"/>
        <path class="cls-2" d="M643.97,146.07h8v4.58c0,1.86-.34,3.49-1.02,4.87-.68,1.39-1.64,2.47-2.87,3.23-1.23.77-2.68,1.15-4.34,1.15s-3.13-.36-4.38-1.08c-1.25-.72-2.22-1.74-2.91-3.05-.69-1.31-1.04-2.84-1.04-4.59v-7.3c0-1.86.34-3.48,1.03-4.87s1.65-2.46,2.87-3.22,2.67-1.15,4.34-1.15c1.38,0,2.63.31,3.76.92,1.13.61,2.07,1.47,2.84,2.57.77,1.1,1.28,2.39,1.55,3.86h-4.1c-.26-1.04-.79-1.85-1.56-2.41-.78-.56-1.61-.84-2.49-.84-1.31,0-2.36.47-3.15,1.41s-1.18,2.18-1.18,3.73v7.3c0,1.4.4,2.51,1.21,3.35s1.88,1.26,3.22,1.26,2.36-.45,3.15-1.34,1.18-2.14,1.18-3.74v-.75h-4.1v-3.9Z"/>
        <path class="cls-2" d="M656.57,159.65v-24.74h3.8v24.74h-3.8ZM658.59,149.37v-3.9h13.13v3.9h-13.13ZM669.45,159.65v-24.74h3.8v24.74h-3.8Z"/>
      </g>
      <path class="cls-2" d="M274.89,201.46l8.67-24.74h2.76l8.67,24.74h-4.08l-5.97-18.43-5.97,18.43h-4.08ZM278.97,196.77v-3.9h12.15v3.9h-12.15Z"/>
      <path class="cls-2" d="M306.91,201.45v-24.72h4.13l9.94,19.04-.38.44v-19.48h3.68v24.72h-4.16l-9.91-18.75.38-.44v19.19h-3.68Z"/>
      <path class="cls-2" d="M329.68,201.46v-24.74h3.8v24.74h-3.8ZM331.25,180.62v-3.9h13.58v3.9h-13.58ZM331.25,191.12v-3.88h11.83v3.88h-11.83ZM331.25,201.46v-3.9h13.58v3.9h-13.58Z"/>
      <path class="cls-2" d="M354.18,194.67l4.57-17.95h2.86l4.57,17.95,3.53-17.95h3.92l-5.48,24.74h-3.7l-4.18-17.29-4.37,17.29h-3.7l-5.48-24.74h3.92l3.53,17.95Z"/>
      <path class="cls-2" d="M390.45,194.67l4.57-17.95h2.86l4.57,17.95,3.53-17.95h3.92l-5.48,24.74h-3.7l-4.18-17.29-4.37,17.29h-3.7l-5.48-24.74h3.92l3.53,17.95Z"/>
      <path class="cls-2" d="M420.4,201.72c-1.66,0-3.12-.38-4.36-1.13-1.24-.75-2.21-1.81-2.89-3.19-.68-1.37-1.02-2.97-1.02-4.8v-7.01c0-1.84.34-3.44,1.02-4.81.68-1.37,1.65-2.43,2.89-3.18,1.24-.75,2.7-1.13,4.36-1.13s3.12.37,4.36,1.13,2.21,1.81,2.89,3.18,1.02,2.97,1.02,4.81v7.01c0,1.83-.34,3.43-1.02,4.8s-1.65,2.43-2.89,3.19-2.7,1.13-4.36,1.13ZM420.4,197.69c1.32,0,2.38-.45,3.18-1.36.79-.91,1.19-2.11,1.19-3.61v-7.25c0-1.51-.4-2.72-1.19-3.62-.79-.9-1.85-1.35-3.18-1.35s-2.37.45-3.17,1.35-1.2,2.11-1.2,3.62v7.25c0,1.5.4,2.7,1.2,3.61.8.91,1.86,1.36,3.17,1.36Z"/>
      <path class="cls-2" d="M433.28,201.46v-24.76h3.8v24.76h-3.8ZM434.85,191.25v-3.9h7.96c.82,0,1.47-.31,1.95-.93s.74-1.43.75-2.46c0-1.01-.25-1.83-.74-2.44-.49-.62-1.15-.92-1.96-.92h-7.96v-3.9h8.07c1.31,0,2.46.3,3.44.9s1.74,1.45,2.29,2.54.82,2.37.82,3.83-.28,2.74-.83,3.83c-.55,1.09-1.31,1.93-2.29,2.54-.97.61-2.12.91-3.43.91h-8.07ZM445.87,201.46l-5.45-10.97,3.94-.78,6.07,11.76h-4.56Z"/>
      <path class="cls-2" d="M454.48,201.46v-24.74h3.8v24.74h-3.8ZM456.25,201.46v-3.9h13.37v3.9h-13.37Z"/>
      <path class="cls-2" d="M473.12,201.46v-24.74h3.8v24.74h-3.8ZM475.31,201.46v-3.9h5.38c1.57,0,2.78-.43,3.64-1.27.86-.85,1.29-2.03,1.29-3.56v-7.28c0-1.54-.43-2.73-1.29-3.57s-2.08-1.26-3.64-1.26h-5.38v-3.9h5.29c2.85,0,5.05.77,6.61,2.32,1.56,1.55,2.33,3.73,2.33,6.55v7.01c0,1.81-.34,3.39-1.02,4.71-.68,1.33-1.69,2.35-3.03,3.07-1.33.72-2.97,1.08-4.91,1.08h-5.27Z"/>
      <path class="cls-2" d="M508.42,201.46l-7.61-24.74h4l5.22,17.95,5.22-17.95h4l-7.61,24.74h-3.24Z"/>
      <path class="cls-2" d="M526.16,176.72v24.74h-3.87v-24.74h3.87Z"/>
      <path class="cls-2" d="M538.49,201.72c-1.11,0-2.18-.12-3.2-.35s-1.98-.57-2.87-1.03-1.71-1.02-2.46-1.68l2.02-3.25c.89.81,1.89,1.41,2.99,1.83s2.28.62,3.52.62c1.55,0,2.74-.29,3.6-.88s1.28-1.42,1.28-2.5v-.02c0-.83-.21-1.46-.64-1.91-.43-.44-.99-.77-1.69-.98s-1.46-.39-2.29-.53c-.88-.15-1.77-.33-2.68-.56s-1.74-.57-2.49-1.04-1.37-1.15-1.83-2.02-.69-2.05-.69-3.51v-.02c0-2.36.73-4.19,2.18-5.48,1.46-1.29,3.51-1.94,6.17-1.94,1.24,0,2.48.22,3.72.65,1.24.44,2.42,1.08,3.54,1.93l-1.84,3.35c-.89-.69-1.79-1.21-2.72-1.56s-1.82-.52-2.7-.52c-1.46,0-2.59.28-3.39.86-.8.57-1.2,1.38-1.2,2.43v.02c0,.86.24,1.51.71,1.96s1.09.78,1.84,1,1.57.42,2.45.61c.87.18,1.73.4,2.6.66s1.65.64,2.36,1.12c.71.49,1.28,1.16,1.71,2.01.43.86.64,1.97.64,3.35v.03c0,2.34-.75,4.14-2.26,5.42-1.51,1.28-3.63,1.92-6.38,1.92Z"/>
      <path class="cls-2" d="M554.82,176.72v24.74h-3.87v-24.74h3.87Z"/>
      <path class="cls-2" d="M567.86,201.72c-1.66,0-3.12-.38-4.36-1.13-1.24-.75-2.21-1.81-2.89-3.19-.68-1.37-1.02-2.97-1.02-4.8v-7.01c0-1.84.34-3.44,1.02-4.81.68-1.37,1.65-2.43,2.89-3.18,1.24-.75,2.7-1.13,4.36-1.13s3.12.37,4.36,1.13c1.24.75,2.21,1.81,2.89,3.18.68,1.37,1.02,2.97,1.02,4.81v7.01c0,1.83-.34,3.43-1.02,4.8-.68,1.37-1.65,2.43-2.89,3.19s-2.7,1.13-4.36,1.13ZM567.86,197.69c1.32,0,2.38-.45,3.18-1.36s1.19-2.11,1.19-3.61v-7.25c0-1.51-.4-2.72-1.19-3.62-.79-.9-1.85-1.35-3.18-1.35s-2.37.45-3.17,1.35c-.8.9-1.2,2.11-1.2,3.62v7.25c0,1.5.4,2.7,1.2,3.61s1.86,1.36,3.17,1.36Z"/>
      <path class="cls-2" d="M580.73,201.45v-24.72h4.13l9.94,19.04-.38.44v-19.48h3.68v24.72h-4.16l-9.91-18.75.38-.44v19.19h-3.68Z"/>
      <g>
        <path class="cls-2" d="M.62,83.65v-7.2l17.39-22.62c.89-1.15,1.59-2.34,2.09-3.57s.74-2.38.74-3.46v-.07c0-1.65-.51-2.93-1.53-3.84s-2.48-1.36-4.37-1.36-3.26.55-4.39,1.65c-1.13,1.1-1.81,2.65-2.04,4.67v.03H0v-.03c.48-4.48,2.04-7.95,4.66-10.41,2.63-2.45,6.03-3.68,10.2-3.68,4.61,0,8.18,1.12,10.71,3.36s3.8,5.41,3.8,9.51v.03c0,1.99-.38,4.02-1.16,6.08s-1.84,3.97-3.2,5.74l-13.48,17.39h18.11v7.78H.62Z"/>
        <path class="cls-2" d="M52.64,84.16c-4.89,0-8.56-1.26-11.01-3.79-2.46-2.52-3.68-5.94-3.68-10.24v-22.45c0-4.37,1.24-7.8,3.71-10.29s6.14-3.74,10.98-3.74,8.52,1.24,10.98,3.72c2.47,2.48,3.7,5.91,3.7,10.31v22.45c0,4.37-1.24,7.8-3.71,10.29-2.48,2.49-6.13,3.74-10.97,3.74ZM52.64,76.38c2.27,0,3.92-.66,4.92-1.99,1.01-1.32,1.5-3.14,1.5-5.45v-20.07c0-2.33-.5-4.16-1.5-5.47-1-1.31-2.65-1.97-4.92-1.97s-3.93.66-4.93,1.97c-1.01,1.31-1.51,3.14-1.51,5.47v20.07c0,2.31.5,4.13,1.51,5.45,1,1.33,2.64,1.99,4.93,1.99Z"/>
      </g>
      <g>
        <path class="cls-2" d="M808.56,83.65v-7.21l18.42-22.66c.95-1.16,1.68-2.35,2.21-3.57s.79-2.38.79-3.47v-.07c0-1.65-.54-2.94-1.62-3.84-1.08-.91-2.63-1.36-4.63-1.36s-3.45.55-4.65,1.65c-1.2,1.1-1.92,2.66-2.16,4.68v.03h-9.01v-.03c.51-4.49,2.16-7.97,4.94-10.43,2.78-2.46,6.38-3.69,10.8-3.69,4.88,0,8.67,1.12,11.35,3.37s4.03,5.42,4.03,9.53v.03c0,2-.41,4.03-1.22,6.09-.82,2.06-1.95,3.98-3.39,5.75l-14.28,17.42h19.18v7.79h-30.75Z"/>
        <path class="cls-2" d="M859.99,84.16c-4.81,0-8.55-1.31-11.21-3.91-2.66-2.61-3.99-6.28-3.99-11.02v-.03c0-2.13.33-4.39.97-6.77.65-2.38,1.55-4.7,2.72-6.94l11.21-21.3h9.66l-13.18,24.67-1.25-1.22c1.27-2.25,3.53-3.37,6.78-3.37,4.29,0,7.62,1.29,9.98,3.86,2.36,2.58,3.53,6.21,3.53,10.91v.03c0,4.79-1.33,8.5-3.99,11.14-2.66,2.64-6.4,3.96-11.24,3.96ZM859.99,76.33c2.1,0,3.7-.58,4.81-1.74,1.11-1.16,1.66-2.81,1.66-4.97v-.03c0-2.4-.57-4.26-1.72-5.56-1.14-1.3-2.79-1.95-4.94-1.95-1.98,0-3.51.66-4.61,1.97-1.1,1.31-1.64,3.18-1.64,5.58v.03c0,2.16.56,3.8,1.68,4.95,1.12,1.14,2.72,1.72,4.77,1.72Z"/>
      </g>
    </g>
  </g>
</svg>