<?xml version="1.0" encoding="UTF-8"?>
<svg id="Capa_2" data-name="Capa 2" xmlns="http://www.w3.org/2000/svg" viewBox="0 0 875.22 117.82">
  <defs>
    <style>
      .cls-1 {
        fill: #931818;
      }

      .cls-2 {
        fill: #f5f2eb;
      }
    </style>
  </defs>
  <g id="Graphic_Elements" data-name="Graphic Elements">
    <g>
      <g>
        <path class="cls-1" d="M100.99,117.82V0h31.44v12.28h-18.6v93.25h18.6v12.28h-31.44Z"/>
        <path class="cls-2" d="M186.07,105.28c-5.44,0-10.18-1.06-14.22-3.2-4.04-2.13-7.16-5.22-9.36-9.27-2.2-4.05-3.3-8.79-3.3-14.23v-40.61c0-5.51,1.1-10.28,3.3-14.29,2.2-4.01,5.32-7.08,9.36-9.21,4.04-2.13,8.78-3.2,14.22-3.2s10.16,1.09,14.16,3.26c4,2.17,7.1,5.24,9.3,9.21,2.2,3.97,3.3,8.71,3.3,14.23h-12.96c0-4.76-1.2-8.4-3.6-10.91s-5.8-3.76-10.2-3.76-7.82,1.25-10.26,3.76-3.66,6.1-3.66,10.78v40.74c0,4.68,1.22,8.29,3.66,10.84,2.44,2.55,5.86,3.82,10.26,3.82s7.8-1.27,10.2-3.82,3.6-6.16,3.6-10.84h12.96c0,5.43-1.1,10.15-3.3,14.16-2.2,4.01-5.3,7.1-9.3,9.27-4,2.17-8.72,3.26-14.16,3.26Z"/>
        <path class="cls-2" d="M231.68,104.03V12.53h27.48c5.52,0,10.32,1.11,14.4,3.32,4.08,2.21,7.26,5.33,9.54,9.34,2.28,4.01,3.42,8.73,3.42,14.16,0,6.1-1.5,11.39-4.5,15.86-3,4.47-7.06,7.63-12.18,9.46l17.88,39.36h-14.76l-15.96-37.6h-12.36v37.6h-12.96ZM244.64,54.52h14.52c4.32,0,7.76-1.36,10.32-4.07,2.56-2.71,3.84-6.33,3.84-10.84s-1.28-8.35-3.84-11.03c-2.56-2.67-6-4.01-10.32-4.01h-14.52v29.96Z"/>
        <path class="cls-2" d="M304.88,104.03V12.53h51.48v12.03h-38.76v25.95h34.56v11.91h-34.56v29.58h38.76v12.03h-51.48Z"/>
        <path class="cls-2" d="M370.77,104.03l22.32-91.5h17.04l22.32,91.5h-13.08l-5.28-23.19h-24.84l-5.28,23.19h-13.2ZM391.65,69.69h19.92l-6-26.45c-1.04-4.68-1.9-8.75-2.58-12.22-.68-3.47-1.14-5.83-1.38-7.08-.24,1.25-.68,3.61-1.32,7.08-.64,3.47-1.52,7.5-2.64,12.09l-6,26.57Z"/>
        <path class="cls-2" d="M467.13,104.03V24.94h-23.4v-12.53h59.76v12.53h-23.4v79.09h-12.96Z"/>
        <path class="cls-2" d="M520.9,104.03V12.53h51.48v12.03h-38.76v25.95h34.56v11.91h-34.56v29.58h38.76v12.03h-51.48Z"/>
        <path class="cls-2" d="M618.1,105.28c-5.44,0-10.18-1.06-14.22-3.2-4.04-2.13-7.16-5.22-9.36-9.27-2.2-4.05-3.3-8.79-3.3-14.23v-40.61c0-5.51,1.1-10.28,3.3-14.29,2.2-4.01,5.32-7.08,9.36-9.21,4.04-2.13,8.78-3.2,14.22-3.2s10.16,1.09,14.16,3.26c4,2.17,7.1,5.24,9.3,9.21,2.2,3.97,3.3,8.71,3.3,14.23h-12.96c0-4.76-1.2-8.4-3.6-10.91-2.4-2.51-5.8-3.76-10.2-3.76s-7.82,1.25-10.26,3.76c-2.44,2.51-3.66,6.1-3.66,10.78v40.74c0,4.68,1.22,8.29,3.66,10.84,2.44,2.55,5.86,3.82,10.26,3.82s7.8-1.27,10.2-3.82c2.4-2.55,3.6-6.16,3.6-10.84h12.96c0,5.43-1.1,10.15-3.3,14.16-2.2,4.01-5.3,7.1-9.3,9.27-4,2.17-8.72,3.26-14.16,3.26Z"/>
        <path class="cls-2" d="M658.79,104.03l22.32-91.5h17.04l22.32,91.5h-13.08l-5.28-23.19h-24.84l-5.28,23.19h-13.2ZM679.67,69.69h19.92l-6-26.45c-1.04-4.68-1.9-8.75-2.58-12.22-.68-3.47-1.14-5.83-1.38-7.08-.24,1.25-.68,3.61-1.32,7.08-.64,3.47-1.52,7.5-2.64,12.09l-6,26.57Z"/>
        <path class="cls-1" d="M742.79,117.82v-12.28h18.6V12.28h-18.6V0h31.44v117.82h-31.44Z"/>
      </g>
      <g>
        <path class="cls-2" d="M.62,83.65v-7.2l17.39-22.62c.89-1.15,1.59-2.34,2.09-3.57s.74-2.38.74-3.46v-.07c0-1.65-.51-2.93-1.53-3.84s-2.48-1.36-4.37-1.36-3.26.55-4.39,1.65c-1.13,1.1-1.81,2.65-2.04,4.67v.03H0v-.03c.48-4.48,2.04-7.95,4.66-10.41,2.63-2.45,6.03-3.68,10.2-3.68,4.61,0,8.18,1.12,10.71,3.36s3.8,5.41,3.8,9.51v.03c0,1.99-.38,4.02-1.16,6.08s-1.84,3.97-3.2,5.74l-13.48,17.39h18.11v7.78H.62Z"/>
        <path class="cls-2" d="M52.64,84.16c-4.89,0-8.56-1.26-11.01-3.79-2.46-2.52-3.68-5.94-3.68-10.24v-22.45c0-4.37,1.24-7.8,3.71-10.29s6.14-3.74,10.98-3.74,8.52,1.24,10.98,3.72c2.47,2.48,3.7,5.91,3.7,10.31v22.45c0,4.37-1.24,7.8-3.71,10.29-2.48,2.49-6.13,3.74-10.97,3.74ZM52.64,76.38c2.27,0,3.92-.66,4.92-1.99,1.01-1.32,1.5-3.14,1.5-5.45v-20.07c0-2.33-.5-4.16-1.5-5.47-1-1.31-2.65-1.97-4.92-1.97s-3.93.66-4.93,1.97c-1.01,1.31-1.51,3.14-1.51,5.47v20.07c0,2.31.5,4.13,1.51,5.45,1,1.33,2.64,1.99,4.93,1.99Z"/>
      </g>
      <g>
        <path class="cls-2" d="M808.56,83.65v-7.21l18.42-22.66c.95-1.16,1.68-2.35,2.21-3.57s.79-2.38.79-3.47v-.07c0-1.65-.54-2.94-1.62-3.84-1.08-.91-2.63-1.36-4.63-1.36s-3.45.55-4.65,1.65c-1.2,1.1-1.92,2.66-2.16,4.68v.03h-9.01v-.03c.51-4.49,2.16-7.97,4.94-10.43,2.78-2.46,6.38-3.69,10.8-3.69,4.88,0,8.67,1.12,11.35,3.37s4.03,5.42,4.03,9.53v.03c0,2-.41,4.03-1.22,6.09-.82,2.06-1.95,3.98-3.39,5.75l-14.28,17.42h19.18v7.79h-30.75Z"/>
        <path class="cls-2" d="M859.99,84.16c-4.81,0-8.55-1.31-11.21-3.91-2.66-2.61-3.99-6.28-3.99-11.02v-.03c0-2.13.33-4.39.97-6.77.65-2.38,1.55-4.7,2.72-6.94l11.21-21.3h9.66l-13.18,24.67-1.25-1.22c1.27-2.25,3.53-3.37,6.78-3.37,4.29,0,7.62,1.29,9.98,3.86,2.36,2.58,3.53,6.21,3.53,10.91v.03c0,4.79-1.33,8.5-3.99,11.14-2.66,2.64-6.4,3.96-11.24,3.96ZM859.99,76.33c2.1,0,3.7-.58,4.81-1.74,1.11-1.16,1.66-2.81,1.66-4.97v-.03c0-2.4-.57-4.26-1.72-5.56-1.14-1.3-2.79-1.95-4.94-1.95-1.98,0-3.51.66-4.61,1.97-1.1,1.31-1.64,3.18-1.64,5.58v.03c0,2.16.56,3.8,1.68,4.95,1.12,1.14,2.72,1.72,4.77,1.72Z"/>
      </g>
    </g>
  </g>
</svg>