<?xml version="1.0" encoding="UTF-8"?>
<svg id="Capa_2" data-name="Capa 2" xmlns="http://www.w3.org/2000/svg" viewBox="0 0 184.91 77.7">
  <defs>
    <style>
      .cls-1, .cls-2, .cls-3 {
        fill-rule: evenodd;
      }

      .cls-1, .cls-4 {
        fill: #007cba;
      }

      .cls-2 {
        fill: #021d49;
      }

      .cls-3 {
        fill: #14407b;
      }
    </style>
  </defs>
  <g id="Layer_2" data-name="Layer 2">
    <g>
      <path class="cls-4" d="M70.22,46.17c.33.58.77,1.06,1.3,1.43.53.37,1.14.64,1.83.82.69.18,1.4.27,2.15.27.53,0,1.09-.06,1.67-.19.58-.12,1.12-.32,1.59-.58.47-.27.88-.62,1.19-1.06.32-.44.48-1,.48-1.67,0-1.13-.76-1.98-2.26-2.55-1.5-.57-3.6-1.13-6.29-1.7-1.1-.25-2.17-.54-3.21-.88-1.04-.34-1.97-.78-2.78-1.33-.81-.55-1.47-1.24-1.96-2.07-.5-.83-.75-1.85-.75-3.05,0-1.77.35-3.22,1.04-4.35.69-1.13,1.6-2.02,2.73-2.68,1.13-.65,2.4-1.11,3.82-1.38,1.42-.27,2.87-.4,4.35-.4s2.93.14,4.33.42c1.4.28,2.64.76,3.74,1.43,1.1.67,2.01,1.56,2.73,2.68.72,1.11,1.16,2.52,1.3,4.22h-7.16c-.11-1.45-.65-2.43-1.65-2.95-.99-.51-2.16-.77-3.5-.77-.42,0-.89.03-1.38.08-.49.05-.94.17-1.35.34-.41.18-.75.43-1.03.77-.29.34-.43.79-.43,1.35,0,.67.25,1.22.74,1.64.49.43,1.14.77,1.94,1.04.8.26,1.71.5,2.73.72,1.03.21,2.07.44,3.13.69,1.09.25,2.17.55,3.21.9,1.05.35,1.97.82,2.79,1.41.81.58,1.47,1.31,1.96,2.18.5.87.74,1.94.74,3.21,0,1.8-.36,3.32-1.09,4.54-.73,1.22-1.67,2.2-2.84,2.94-1.17.74-2.5,1.26-4,1.56-1.51.3-3.03.45-4.59.45s-3.15-.16-4.67-.48c-1.52-.32-2.87-.85-4.06-1.59-1.19-.74-2.16-1.72-2.92-2.94-.76-1.22-1.18-2.75-1.25-4.59h7.16c0,.82.17,1.51.51,2.1ZM92.05,29.59c.78-1.17,1.77-2.1,2.97-2.81,1.2-.71,2.56-1.21,4.06-1.51,1.5-.3,3.02-.45,4.54-.45,1.38,0,2.78.1,4.19.29,1.41.2,2.7.58,3.87,1.14,1.17.57,2.12,1.35,2.86,2.36.74,1.01,1.12,2.34,1.12,4v14.27c0,1.24.07,2.42.21,3.55.14,1.13.39,1.98.74,2.55h-7.64c-.14-.43-.26-.86-.35-1.3-.09-.44-.15-.89-.18-1.35-1.2,1.24-2.62,2.1-4.24,2.6-1.63.5-3.29.74-4.99.74-1.31,0-2.53-.16-3.66-.48-1.13-.32-2.12-.81-2.97-1.48-.85-.67-1.51-1.52-1.99-2.55-.48-1.03-.72-2.25-.72-3.66,0-1.56.27-2.84.82-3.85.55-1.01,1.26-1.81,2.13-2.41.87-.6,1.86-1.05,2.97-1.35,1.11-.3,2.24-.54,3.37-.72,1.13-.18,2.24-.32,3.34-.42,1.1-.11,2.07-.27,2.92-.48.85-.21,1.52-.52,2.01-.93.5-.41.72-1,.69-1.78,0-.81-.13-1.46-.4-1.94-.27-.48-.62-.85-1.06-1.11-.44-.27-.96-.44-1.54-.53-.58-.09-1.21-.13-1.88-.13-1.48,0-2.65.32-3.5.96-.85.64-1.35,1.7-1.49,3.18h-7.53c.11-1.77.55-3.24,1.33-4.4ZM106.93,40.23c-.48.16-.99.29-1.54.4-.55.11-1.12.2-1.72.27-.6.07-1.2.16-1.8.27-.57.1-1.13.25-1.67.42-.55.18-1.02.42-1.43.72-.4.3-.73.68-.98,1.14-.25.46-.37,1.04-.37,1.75s.13,1.24.37,1.7c.25.46.58.82,1.01,1.09.42.27.92.45,1.49.56.56.11,1.15.16,1.75.16,1.49,0,2.64-.25,3.45-.74.82-.5,1.42-1.09,1.81-1.78.39-.69.63-1.39.72-2.1.09-.71.13-1.27.13-1.7v-2.81c-.32.28-.72.5-1.19.66ZM125.95,25.56v3.5h.1c.92-1.49,2.09-2.57,3.5-3.24,1.41-.67,2.97-1.01,4.67-1.01,2.15,0,4.01.41,5.57,1.22,1.56.81,2.84,1.89,3.87,3.24,1.02,1.34,1.79,2.91,2.28,4.69.5,1.79.74,3.65.74,5.6,0,1.84-.25,3.61-.74,5.31-.49,1.7-1.24,3.2-2.25,4.51-1.01,1.31-2.27,2.35-3.76,3.13-1.51.78-3.27,1.17-5.28,1.17-1.7,0-3.26-.34-4.7-1.03-1.43-.69-2.61-1.71-3.53-3.05h-.11v13h-7.53V25.56h7.16ZM135.74,47.31c.83-.49,1.5-1.14,2.02-1.94.51-.8.88-1.72,1.09-2.79.21-1.06.32-2.14.32-3.23s-.11-2.18-.34-3.24c-.23-1.06-.61-2.01-1.14-2.84-.53-.83-1.21-1.5-2.04-2.02-.83-.51-1.85-.77-3.05-.77s-2.28.26-3.1.77c-.83.51-1.5,1.17-2.02,1.99-.51.81-.88,1.75-1.09,2.81-.21,1.06-.32,2.16-.32,3.29s.11,2.17.35,3.23c.23,1.06.6,1.99,1.12,2.79.51.8,1.19,1.44,2.04,1.94.85.5,1.87.74,3.08.74s2.27-.25,3.1-.74ZM150.27,29.59c.78-1.17,1.77-2.1,2.97-2.81,1.2-.71,2.56-1.21,4.06-1.51,1.5-.3,3.01-.45,4.53-.45,1.38,0,2.77.1,4.19.29,1.41.2,2.7.58,3.87,1.14,1.17.57,2.13,1.35,2.87,2.36.74,1.01,1.11,2.34,1.11,4v14.27c0,1.24.07,2.42.21,3.55.14,1.13.39,1.98.74,2.55h-7.64c-.14-.43-.26-.86-.34-1.3-.09-.44-.15-.89-.19-1.35-1.2,1.24-2.62,2.1-4.24,2.6-1.63.5-3.29.74-4.99.74-1.31,0-2.53-.16-3.66-.48-1.13-.32-2.12-.81-2.97-1.48-.85-.67-1.51-1.52-1.99-2.55-.48-1.03-.72-2.25-.72-3.66,0-1.56.27-2.84.82-3.85.55-1.01,1.25-1.81,2.12-2.41.87-.6,1.85-1.05,2.97-1.35,1.12-.3,2.24-.54,3.37-.72,1.13-.18,2.25-.32,3.34-.42,1.1-.11,2.07-.27,2.92-.48.85-.21,1.52-.52,2.01-.93.5-.41.73-1,.69-1.78,0-.81-.13-1.46-.4-1.94-.26-.48-.62-.85-1.06-1.11-.44-.27-.96-.44-1.54-.53-.58-.09-1.21-.13-1.88-.13-1.48,0-2.65.32-3.5.96-.85.64-1.34,1.7-1.48,3.18h-7.53c.1-1.77.55-3.24,1.33-4.4ZM165.15,40.23c-.48.16-.99.29-1.54.4-.55.11-1.12.2-1.72.27-.6.07-1.2.16-1.8.27-.57.1-1.13.25-1.67.42-.55.18-1.03.42-1.43.72-.41.3-.74.68-.98,1.14-.25.46-.37,1.04-.37,1.75s.13,1.24.37,1.7.59.82,1.01,1.09c.43.27.92.45,1.49.56.57.11,1.15.16,1.75.16,1.48,0,2.63-.25,3.45-.74.81-.5,1.41-1.09,1.8-1.78.39-.69.63-1.39.72-2.1.09-.71.13-1.27.13-1.7v-2.81c-.32.28-.72.5-1.19.66ZM184.91,15.11v37.88h-7.54V15.11h7.54Z"/>
      <g>
        <path class="cls-4" d="M34.73,62.57c-4.67,0-9.05-1.58-12.65-4.57-3.3-2.74-5.69-6.47-6.72-10.52-2.13-8.35,2.42-15.56,6.27-22.02C31.25,9.33,34.73,0,34.73,0c0,0,3.48,9.33,13.11,25.46,3.85,6.46,8.4,13.67,6.27,22.02-1.03,4.04-3.42,7.78-6.73,10.52-3.6,2.99-7.98,4.57-12.66,4.57ZM34.73,9.25c-2.28,5.25-4.98,10.11-7.41,14.38-.74,1.3-1.55,2.62-2.34,3.89-3.7,6.02-7.53,12.25-5.81,18.99.83,3.24,2.75,6.25,5.42,8.46,2.89,2.4,6.4,3.66,10.14,3.66s7.25-1.27,10.14-3.66c2.67-2.21,4.59-5.22,5.42-8.46,1.72-6.74-2.11-12.96-5.81-18.99-.78-1.28-1.6-2.6-2.34-3.89-2.44-4.28-5.13-9.13-7.42-14.38Z"/>
        <path class="cls-1" d="M53.66,73.99c-3.32-3.07-7.11-4.34-11.91-4.15-5.63.22-11.5,4.56-21.45,3.03-8.16-1.25-12.35-5.43-12.35-5.43,0,0,4.53,5.99,14.49,7.44,8.04,1.17,14.29-1.79,18.32-2.63,3.16-.66,8.16-1.15,12.91,1.74Z"/>
        <path class="cls-3" d="M61.47,69.41c-3.86-3.57-8.29-5.06-13.88-4.84-6.56.26-13.39,5.31-24.98,3.53-9.5-1.46-14.38-6.32-14.38-6.32,0,0,5.27,6.98,16.87,8.66,9.37,1.36,16.64-2.09,21.34-3.06,3.68-.76,9.5-1.34,15.03,2.03Z"/>
        <path class="cls-2" d="M0,72.32s8.83,5.94,24.23,1.59c9.15-2.59,15.03-7.02,21.59-10.34,6.35-3.21,14.75-5.01,23.54-.83-7.25-1.87-14.63-.05-22.86,4.92-14.38,8.67-20.95,9.83-27.69,10.03-7.11.21-13.58-1.5-18.8-5.36Z"/>
      </g>
    </g>
  </g>
</svg>